# xmcd
#
# Track frame offsets:
#	150
#	18471
#	36599
#	53739
#	73634
#	87254
#	104346
#	120127
#	136190
#	156939
#	169694
#
# Disc length: 2339 seconds
#
# Revision: 0
# Processed by: cddbd v1.5.2PL0 Copyright (c) Steve Scherf et al.
# Submitted via: dBpowerAMP V4.0
#
DISCID=8a09210b
DTITLE=Howard Livingston and Mile Marker 24 - Blame It on the Margaritas
DYEAR=2007
DGENRE=Trop Rock
TTITLE0=Blame It On The Margaritas
TTITLE1=Local on the Eights
TTITLE2=Know Your Limitations
TTITLE3=Dance the Night Away
TTITLE4=When I Think of You
TTITLE5=Sailin' to I Don't Know
TTITLE6=Coconut Rum
TTITLE7=Boondocks
TTITLE8=Love Is So Easy
TTITLE9=Better Life
TTITLE10=Local on the Eights (Instrumental)
EXTD=
EXTT0=
EXTT1=
EXTT2=
EXTT3=
EXTT4=
EXTT5=
EXTT6=
EXTT7=
EXTT8=
EXTT9=
EXTT10=
PLAYORDER=
